<?xml version="1.0" encoding="UTF-8" standalone="no"?>
<!-- Created with Inkscape (http://www.inkscape.org/) -->

<svg
   xmlns:dc="http://purl.org/dc/elements/1.1/"
   xmlns:cc="http://creativecommons.org/ns#"
   xmlns:rdf="http://www.w3.org/1999/02/22-rdf-syntax-ns#"
   xmlns:svg="http://www.w3.org/2000/svg"
   xmlns="http://www.w3.org/2000/svg"
   xmlns:sodipodi="http://sodipodi.sourceforge.net/DTD/sodipodi-0.dtd"
   xmlns:inkscape="http://www.inkscape.org/namespaces/inkscape"
   width="669.685"
   height="708.66138"
   id="svg2985"
   version="1.1"
   inkscape:version="0.48.3.1 r9886"
   sodipodi:docname="warehouse_OGM_noisy.svg">
  <defs
     id="defs2987" />
  <sodipodi:namedview
     inkscape:document-units="mm"
     pagecolor="#ffffff"
     bordercolor="#666666"
     borderopacity="1.0"
     inkscape:pageopacity="0.0"
     inkscape:pageshadow="2"
     inkscape:zoom="1"
     inkscape:cx="356.75988"
     inkscape:cy="359.02529"
     inkscape:current-layer="layer1"
     id="namedview2989"
     showgrid="false"
     inkscape:snap-grids="true"
     inkscape:window-width="1871"
     inkscape:window-height="1176"
     inkscape:window-x="49"
     inkscape:window-y="24"
     inkscape:window-maximized="1"
     units="mm" />
  <metadata
     id="metadata2991">
    <rdf:RDF>
      <cc:Work
         rdf:about="">
        <dc:format>image/svg+xml</dc:format>
        <dc:type
           rdf:resource="http://purl.org/dc/dcmitype/StillImage" />
        <dc:title />
      </cc:Work>
    </rdf:RDF>
  </metadata>
  <g
     inkscape:label="Layer 1"
     inkscape:groupmode="layer"
     id="layer1"
     transform="translate(0,-35.433097)">
    <rect
       style="fill:#c8c8ff;fill-opacity:1;fill-rule:nonzero;stroke:none"
       id="rect3187"
       width="674.57983"
       height="712.76367"
       x="-0.72077024"
       y="35.088203" />
    <path
       style="fill:#fafafa;fill-opacity:1;stroke:#000000;stroke-width:1.00100005;stroke-linecap:butt;stroke-linejoin:miter;stroke-miterlimit:4;stroke-opacity:1;stroke-dasharray:none"
       d="m 543.56284,70.35346 -477.14322,136.16613 -0.16183,497.46422 291.55315,0.0949 0.5191,-277.38342 266.01061,-76.22252 z"
       id="path3190"
       inkscape:connector-curvature="0"
       sodipodi:nodetypes="ccccccc" />
    <g
       id="g4727"
       style="fill:#c8c8ff;fill-opacity:1">
      <path
         inkscape:connector-curvature="0"
         id="path3632"
         d="m 302.16919,476.37221 21.6875,0.0625 0.0625,4.0625 -2.25,0.0625 0.0625,11.75 2.25,0.0625 -0.0625,7.9375 -7.125,0.0625 0,5.9375 7.1875,0 0.125,18.3125 -3.875,0.125 0,7.6875 3.625,0 -0.125,9.875 -6,0.125 0,6.1875 6.1875,0 0,7.6875 -1.9375,0 0,6.375 2,0 -0.0625,2.875 -3.5,0.0625 0.0625,2.0625 3.4375,0 -0.0625,5.1875 -1.5,-0.0625 0,3 1.6875,0 0,11.375 -4.25,-0.0625 0,1.75 4.0625,0 0.0625,8.125 0,14.125 -2,0 0.0625,9.875 2,0.125 0,6.0625 -2.625,0 0,1.875 -2.375,0.0625 0,2.75 5,0 0,9.3125 -2.5,-0.0625 0,2.1875 2.625,0.0625 0,2.0625 -6.375,-0.125 0.0625,1.8125 6.1875,0 -0.0625,3.3125 -2,0 0.0625,1.8125 -1.3125,-0.0625 0.0625,2.4375 3.3125,0.0625 -0.0625,8.625 -2.0625,0 0,1.8125 2.0625,0 0.0625,4.3125 -17.5,-0.0625 0.0625,-5.3125 -2,0.0625 0.0625,-2.8125 3.3125,0.0625 0,-3.75 -5.6875,0.125 -0.0625,-12.375 9.9375,0.0625 0,-4.3125 -9.875,-0.0625 0,-2.1875 7.375,0.0625 0,-10.375 -3.4375,-0.0625 0.0625,-7.4375 -4.0625,0.0625 0,-5.75 1.75,0.0625 -0.1875,-8.9375 2.4375,0.0625 -0.125,-4.6875 2.5,0 -0.125,-5.0625 -6.1875,0 0,-15 1.875,0 -0.0625,-2.4375 6.625,0.0625 -0.0625,-3 1.5,0.0625 -0.0625,-3.625 -9.875,-0.0625 0,-3.625 3.25,0 -0.0625,-4.3125 3.1875,0 -0.0625,-4 -6.25,0 0.0625,-8 2.3125,0 -0.0625,-2.0625 7.5625,0 0,-2.125 -9.9375,-0.125 0,-9.6875 2.1875,0.0625 0,-4.1875 3.625,0.0625 0,-3.3125 -5.75,0 0,-6.75 3.875,0.0625 0,-3.4375 5.9375,0.0625 -0.125,-7.125 -9.625,0.0625 -0.0625,-13.625 9.5625,0 0,-3.5625 -2.8125,0.0625 0,-3.875 -2.875,-0.0625 0,-3.625 -3.8125,0.125 z"
         style="fill:#c8c8ff;stroke:#000000;stroke-width:1px;stroke-linecap:butt;stroke-linejoin:miter;stroke-opacity:1;fill-opacity:1" />
      <path
         inkscape:connector-curvature="0"
         id="path3634"
         d="m 261.96789,476.36403 21.56676,0.0884 0.0884,6.62912 -9.98788,-0.0884 0,6.36396 5.83363,0 0.0884,3.62392 3.88908,0 0.0884,7.33623 -6.45235,0.17678 0.0884,2.74004 6.27557,0 0,10.34143 -1.41421,0.0884 -0.0884,2.74004 -3.09359,0.0884 0,3.0052 4.68458,-0.0884 0.0884,5.12652 -9.63433,0 -0.17678,11.22532 9.72272,-0.0884 -0.0884,4.86136 -2.38648,0 0,3.27037 2.47487,-0.17678 0.0884,5.03814 -1.5026,0.0884 -0.0884,2.38648 1.41421,-0.0884 -0.0884,7.51301 -7.33623,0.0884 0,2.56326 7.33623,-0.17677 0.0884,5.83363 -4.41941,0 0.0884,2.56326 4.33103,-0.0884 0,3.44715 -6.71751,0.0884 0.0884,3.35875 6.54073,0 0.17678,12.10921 -9.89949,0.0884 0,1.591 9.72271,-0.0884 0,6.98268 -9.54594,0.0884 0,3.62393 1.94455,0 0,3.0052 2.03293,0 0,1.5026 3.53553,-0.0884 -0.0884,1.32583 2.12132,-0.0884 0,6.36396 -3.62392,0 0.0884,2.56326 3.71231,0.0884 -0.17678,5.48008 -2.82842,0.0884 0,4.15425 3.0052,-0.0884 -0.0884,7.95495 -4.41941,0.0884 0.0884,1.76777 3.27037,0 0,2.38648 1.14905,-0.0884 0,8.13172 -9.89949,0.0884 -0.0884,3.18198 2.29809,0 0,1.50261 5.92202,-0.0884 0,3.62392 1.76777,0 0.0884,15.73313 -21.65515,0 -0.0884,-8.75045 3.80069,0.0884 -0.17677,-15.37958 3.53553,0 -0.0884,-5.83363 -7.15945,0 0.0884,-4.33103 4.94974,-0.0884 0,-3.00521 1.59099,-0.0884 0,-2.38648 1.85616,0 -0.0884,-5.03814 1.59099,0 0,-3.44714 -10.07627,0.0884 0.17678,-10.87177 4.33102,0 -0.26516,-5.3033 -4.06586,0 0.0884,-5.21491 6.36397,0.0884 -0.0884,-2.82842 1.85615,-0.0884 -0.17677,-2.74004 -4.06587,0 0,-2.20971 -3.97747,0 0.17677,-2.03293 5.83363,0 -0.0884,-3.35876 -2.38649,0.0884 0,-2.2981 -2.2981,0.0884 -0.0884,-1.67938 -1.14904,0 0.0884,-9.89949 7.6014,0.0884 0.0884,-4.24264 -7.77817,-0.0884 0,-8.66206 3.0052,0 -0.17678,-2.65165 2.2981,-0.0884 -0.26517,-5.12652 -4.77297,-0.0884 0,-3.18198 6.62913,0.17677 0,-11.31371 -2.47487,0 0,-3.44714 -4.24264,0.0884 -0.17678,-9.36917 2.47487,-0.17677 0,-3.27037 3.00521,0 -0.26517,-10.16466 -5.21491,-0.0884 0.17678,-10.6066 9.36916,0.0884 0,-3.71232 -5.74524,-0.0884 -0.0884,-10.60661 -3.8007,0 z"
         style="fill:#c8c8ff;stroke:#000000;stroke-width:1px;stroke-linecap:butt;stroke-linejoin:miter;stroke-opacity:1;fill-opacity:1" />
      <path
         inkscape:connector-curvature="0"
         id="path3636"
         d="m 221.5,476.40698 21.75,0 0,10.25 -5.875,0.125 0,1 5.625,0 0.125,12.5 -2.5,0.125 0.125,7.625 2.5,0.125 -0.25,15.25 -9.75,0.125 0.25,1.375 9.5,-0.125 0.25,5.625 -5.125,0 0.125,9.125 -4.875,0.125 0,8.875 9.875,-0.125 -0.125,9.625 -5.125,-0.125 0,5.25 5.25,-0.125 0,9.875 -9.75,0 0,3.625 4.125,-0.25 -0.125,4.375 3.25,0 -0.25,5 2.375,0 -0.125,4.125 -7,-0.125 0,2.375 7.625,-0.125 0,5.125 -6.5,0 -0.125,8.25 -3.5,-0.125 0,6 5.375,0.25 0.25,10 -5.125,0 -0.375,11.75 9.5,-0.125 0.25,12 -3.5,0.125 0,4.125 3.625,-0.125 -0.125,5.75 -6.25,0 0.125,2.75 4.375,-0.125 0,12 -20,0 0.25,-16.625 6.375,0.125 0,-7.5 -6.625,-0.375 0,-5.375 9.625,0.125 0,-6.125 -4.625,-0.25 0,-4.625 -4.875,0.25 0,-7.875 9.375,-0.125 0,-2.375 -9.125,-0.125 0,-2.375 2.125,-0.125 -0.125,-2.625 2.5,-0.25 0,-3.125 2.25,-0.125 -0.375,-7.25 -3.5,-0.125 0,-2.375 -3,0 0,-3.125 6.5,0.125 -0.125,-6.25 -3.875,-0.125 0.125,-6.25 5.25,0 -0.125,-5.875 -3.625,0.125 0,-4 -4.25,0.125 -0.125,-2.375 5.625,0.125 0,-4.875 -5.625,0 0.375,-15.75 2.375,0 0,-3.375 -2.5,0 -0.125,-15.125 4.375,0 0,-4.625 5.375,-0.125 -0.25,-4.25 -7.375,-0.125 -0.125,-5.875 4.5,0 -0.125,-9.5 -6.375,0 0.125,-5.125 9.625,-0.125 -0.125,-3.25 -9.625,0 0,-8.875 6.75,-0.125 -0.125,-6 -3.625,0.125 0,-3.75 -3,0.125 z"
         style="fill:#c8c8ff;stroke:#000000;stroke-width:1px;stroke-linecap:butt;stroke-linejoin:miter;stroke-opacity:1;fill-opacity:1" />
      <path
         inkscape:connector-curvature="0"
         id="path3638"
         d="m 181.15625,476.68823 12.0625,-0.125 -0.0625,8 2.625,0.0625 0,2.9375 2.625,0.0625 0,3.1875 4.5625,-0.0625 0.125,9.875 -2.25,0.0625 0,7.9375 2,-0.0625 0.0625,8.625 -6.625,0.0625 0.0625,7.375 6.6875,0.0625 -0.125,5.375 -4.0625,-0.0625 -0.0625,4.9375 4.1875,0 -0.125,10.625 -9.9375,0.0625 0,3.375 10.0625,-0.0625 -0.125,7.1875 -1.8125,0.0625 0.0625,2.3125 -1.4375,-0.0625 0,4.625 -3.5625,0 0.0625,7 6.75,-0.0625 0,3.125 -5,0.0625 0,2.6875 5,-0.125 0,4.9375 -10,-0.0625 0,2.875 4.6875,0.0625 0,6.4375 -4.625,0.125 0,7.1875 9.75,-0.125 0.125,8.5625 -5.3125,-0.0625 0.0625,5 -4.625,-0.0625 0.0625,4.0625 9.875,-0.125 -0.1875,6.375 -8.1875,0 0,4.25 5.9375,-0.125 0.0625,3.1875 2.25,-0.125 0.0625,7.75 -6.125,0.0625 -0.0625,3.5625 6.125,-0.125 0.0625,6.1875 -9.75,-0.1875 0,4.6875 9.9375,0 -0.1875,9.0625 -10.0625,-0.0625 0.1875,5.125 4.4375,0 0.1875,5.4375 -16.5625,0 0.125,-7.6875 6.1875,0 -0.125,-6.375 -6.1875,0 0.0625,-10.0625 2.75,-0.0625 -0.0625,-3.3125 1.875,0.0625 -0.125,-8.375 5.6875,0.0625 0,-5.375 -3.4375,-0.125 -0.0625,-4 -6.375,0.1875 -0.125,-6.875 3.3125,-0.0625 -0.1875,-5 6.75,0 0.125,-8.75 -3.625,0.1875 0.1875,-6.8125 -6.5625,0 -0.125,-10.6875 10.0625,0 -0.125,-7.625 -4.5625,0.1875 -0.25,-6.125 -5.25,-0.0625 0.1875,-11.9375 4.75,0.0625 -0.0625,-7.0625 5.3125,-0.0625 0,-5.125 -7.375,0.0625 0.0625,-7.4375 7.1875,0 0,-9.0625 -9.875,0 -0.0625,-7.4375 7.3125,0.125 0,-5.3125 -7.125,0 -0.0625,-7.625 9.875,0.0625 0,-3.875 -5.1875,-0.0625 -0.0625,-7.375 -4.5625,0.0625 0.0625,-4.875 6.5,0.0625 0,-6.9375 3.3125,-0.0625 -0.0625,-4.375 -10.125,-0.125 z"
         style="fill:#c8c8ff;stroke:#000000;stroke-width:1px;stroke-linecap:butt;stroke-linejoin:miter;stroke-opacity:1;fill-opacity:1" />
      <path
         inkscape:connector-curvature="0"
         id="path3640"
         d="m 140.7997,476.48993 21.5625,-0.125 0.125,6.75 -3.3125,0 -0.0625,5.8125 -6.6875,0.1875 -0.125,11.4375 10.1875,0 0,8.6875 -4.0625,0.1875 -0.0625,6.625 3.875,-0.0625 0.0625,8.25 -9.875,0.125 0.0625,4.6875 7.9375,0 0,3.4375 1.875,-0.0625 -0.1875,11.8125 -5.3125,0.0625 -0.0625,4.375 -4.4375,0.0625 -0.0625,4.75 10.0625,-0.0625 0,9.0625 -2.25,0 -0.0625,4.75 2.3125,0.0625 0.0625,5.5 -10.25,0.0625 0.0625,4.625 6.625,0 -0.0625,4.9375 3.5625,-0.0625 0,8.5 -9.6875,0.0625 0.0625,2.375 4.4375,0 -0.0625,3.5 5.25,0.0625 0,9.75 -9.5625,0 -0.0625,6.25 7,-0.125 0.0625,7.9375 2.5625,0.0625 0,7 -6.8125,-0.125 0.0625,3.8125 4.625,0.0625 0,6.3125 -2.875,0.0625 0.0625,2.875 5.125,0.1875 0,8.9375 -2.75,0 -0.0625,5.25 2.625,0.0625 0.0625,14.1875 -16.5625,0 0.3125,-5.1875 -5.4375,0 0.0625,-6.4375 9.75,0 0.0625,-4.6875 -9.8125,0 -0.0625,-8.25 4.875,0.25 0.0625,-6.1875 4.6875,0.0625 0.1875,-6.125 -9.75,0 -0.25,-7.3125 10.0625,0.125 0,-4.6875 -10,0.0625 0.125,-10.125 2.625,0.1875 0,-6.375 2.8125,0 -0.0625,-7.8125 -5.5,0.125 0,-9.875 1.875,0.0625 0.0625,-6.0625 3.875,0.0625 -0.1875,-8.375 -5.625,-0.0625 0.0625,-7.25 10.1875,0 -0.1875,-4.625 -5.0625,0.125 -0.0625,-5.5625 -4.875,0.0625 0.0625,-6.6875 6.8125,0 -0.0625,-6.4375 -6.6875,-0.125 0,-8.9375 3,0.0625 0,-8.875 6.5625,0.0625 0.0625,-2.5 -4.625,0 0.0625,-4.5 -5.0625,0.0625 0.1875,-9.6875 9.5625,0.1875 -0.125,-2.25 -6.5,0.0625 -0.1875,-5.375 2.25,0 -0.1875,-7.625 4.875,-0.1875 -0.3125,-6 -9.5625,-0.0625 z"
         style="fill:#c8c8ff;stroke:#000000;stroke-width:1px;stroke-linecap:butt;stroke-linejoin:miter;stroke-opacity:1;fill-opacity:1" />
      <path
         inkscape:connector-curvature="0"
         id="path3642"
         d="m 100.33374,476.42209 21.83192,-0.0884 0.17678,14.93763 -10.07627,0.17678 -0.0884,4.06586 4.68458,0 0,4.86136 5.48008,0.17678 0,7.42462 -3.09359,0.0884 0.17677,5.30331 2.74004,0 -0.0884,6.54073 -9.8111,0.26517 0,4.33103 9.8111,-0.0884 0,8.75045 -2.91681,0 0.0884,5.83363 -3.88909,0 -0.0884,3.62392 6.8059,0.0884 0,6.18718 -9.72272,-0.35355 0,3.62392 7.6014,0 0.0884,6.36396 2.20971,-0.0884 -0.26517,8.04334 -2.47487,0.0884 0,6.18719 2.65165,0.26516 0.17678,8.30851 -10.16466,0 0.0884,5.83363 4.5078,0.0884 0,4.86136 5.39169,0.0884 -0.0884,13.34664 -2.74004,0 0.0884,6.98268 2.82843,0 -0.17678,8.3969 -9.63433,0.0884 0,5.03814 5.83363,-0.17678 -0.0884,6.36396 4.06586,0.17678 -0.0884,6.89429 -7.15946,0.26517 0.17678,5.39169 6.89429,0.0884 0.17678,6.36397 -8.30851,-0.0884 0,5.21491 8.30851,-0.0884 -0.0884,12.55115 -21.74353,0.17677 -0.26517,-10.07627 4.94975,0.17678 -0.17678,-14.31891 -4.5078,0 0.17677,-9.01562 9.81111,0.17678 0,-6.8059 -5.56847,0.0884 0,-8.48528 -4.33102,-0.17678 0.0884,-8.57367 2.20971,0.17678 0,-9.63433 4.06587,0.17677 0,-5.92202 -6.18719,-0.0884 -0.17677,-11.13693 9.8111,0.0884 -0.26516,-13.25825 -9.54594,0.17678 0,-8.83884 3.35875,0.0884 -0.17677,-8.39689 -3.18198,0 -0.0884,-7.07107 5.65685,0.0884 0.0884,-7.24785 -5.65685,-0.17677 0,-11.49049 2.91681,0.17678 0.17678,-5.48008 -3.35876,0 0.35355,-15.11441 4.06587,0.17678 -0.17678,-8.92722 5.83363,0.17677 0.0884,-3.27037 -3.09359,0.0884 0.17678,-9.54594 2.91681,0 0,-3.18198 -9.98788,0 z"
         style="fill:#c8c8ff;stroke:#000000;stroke-width:1px;stroke-linecap:butt;stroke-linejoin:miter;stroke-opacity:1;fill-opacity:1" />
    </g>
    <g
       id="g3871"
       transform="matrix(0.27842382,0.96045831,-0.96045831,0.27842382,1361.5421,-276.29186)"
       style="fill:#c8c8ff;fill-opacity:1">
      <path
         inkscape:connector-curvature="0"
         id="path3632-6"
         d="m 360.47052,915.9913 -21.6875,0.0625 -0.0625,4.0625 2.25,0.0625 -0.0625,11.75 -2.25,0.0625 0.0625,7.9375 7.125,0.0625 0,5.9375 -7.1875,0 -0.125,18.3125 3.875,0.125 0,7.6875 -3.625,0 0.125,9.87501 6,0.125 0,6.1875 -6.1875,0 0,7.6875 1.9375,0 0,6.37489 -2,0 0.0625,2.875 3.5,0.062 -0.0625,2.0625 -3.4375,0 0.0625,5.1875 1.5,-0.062 0,3 -1.6875,0 0,11.375 4.25,-0.062 0,1.75 -4.0625,0 -0.0625,8.125 0,14.125 2,0 -0.0625,9.875 -2,0.125 0,6.0625 2.625,0 0,1.875 2.375,0.062 0,2.75 -5,0 0,9.3125 2.5,-0.062 0,2.1875 -2.625,0.062 0,2.0625 6.375,-0.125 -0.0625,1.8125 -6.1875,0 0.0625,3.3125 2,0 -0.0625,1.8125 1.3125,-0.062 -0.0625,2.4375 -3.3125,0.062 0.0625,8.625 2.0625,0 0,1.8125 -2.0625,0 -0.0625,4.3125 17.5,-0.062 -0.0625,-5.3125 2,0.062 -0.0625,-2.8125 -3.3125,0.062 0,-3.75 5.6875,0.125 0.0625,-12.375 -9.9375,0.062 0,-4.3125 9.875,-0.062 0,-2.1875 -7.375,0.062 0,-10.375 3.4375,-0.062 -0.0625,-7.4375 4.0625,0.062 0,-5.75 -1.75,0.062 0.1875,-8.9375 -2.4375,0.062 0.125,-4.6875 -2.5,0 0.125,-5.0625 6.1875,0 0,-15 -1.875,0 0.0625,-2.4375 -6.625,0.062 0.0625,-3 -1.5,0.062 0.0625,-3.625 9.875,-0.062 0,-3.625 -3.25,0 0.0625,-4.3125 -3.1875,0 0.0625,-4 6.25,0 -0.0625,-7.9999 -2.3125,0 0.0625,-2.0625 -7.5625,0 0,-2.125 9.9375,-0.125 0,-9.68751 -2.1875,0.0625 0,-4.1875 -3.625,0.0625 0,-3.3125 5.75,0 0,-6.75 -3.875,0.0625 0,-3.4375 -5.9375,0.0625 0.125,-7.125 9.625,0.0625 0.0625,-13.625 -9.5625,0 0,-3.5625 2.8125,0.0625 0,-3.875 2.875,-0.0625 0,-3.625 3.8125,0.125 z"
         style="fill:#c8c8ff;stroke:#000000;stroke-width:1px;stroke-linecap:butt;stroke-linejoin:miter;stroke-opacity:1;fill-opacity:1" />
      <path
         inkscape:connector-curvature="0"
         id="path3634-0"
         d="m 279.61808,916.09081 -21.56676,0.0884 -0.0884,6.62912 9.98788,-0.0884 0,6.36396 -5.83363,0 -0.0884,3.62392 -3.88908,0 -0.0884,7.33623 6.45235,0.17678 -0.0884,2.74004 -6.27557,0 0,10.34143 1.41421,0.0884 0.0884,2.74004 3.09359,0.0884 0,3.0052 -4.68458,-0.0884 -0.0884,5.12652 9.63433,0 0.17678,11.22532 -9.72272,-0.0884 0.0884,4.86137 2.38648,0 0,3.27037 -2.47487,-0.17678 -0.0884,5.03814 1.5026,0.0884 0.0884,2.38648 -1.41421,-0.0884 0.0884,7.51301 7.33623,0.0884 0,2.56324 -7.33623,-0.1767 -0.0884,5.8336 4.41941,0 -0.0884,2.5632 -4.33103,-0.088 0,3.4472 6.71751,0.088 -0.0884,3.3587 -6.54073,0 -0.17678,12.1093 9.89949,0.088 0,1.591 -9.72271,-0.088 0,6.9826 9.54594,0.088 0,3.624 -1.94455,0 0,3.0052 -2.03293,0 0,1.5026 -3.53553,-0.088 0.0884,1.3258 -2.12132,-0.088 0,6.364 3.62392,0 -0.0884,2.5632 -3.71231,0.088 0.17678,5.4801 2.82842,0.088 0,4.1542 -3.0052,-0.088 0.0884,7.955 4.41941,0.088 -0.0884,1.7678 -3.27037,0 0,2.3864 -1.14905,-0.088 0,8.1318 9.89949,0.088 0.0884,3.1819 -2.29809,0 0,1.5027 -5.92202,-0.088 0,3.6239 -1.76777,0 -0.0884,15.7331 21.65515,0 0.0884,-8.7504 -3.80069,0.088 0.17677,-15.3797 -3.53553,0 0.0884,-5.8336 7.15945,0 -0.0884,-4.331 -4.94974,-0.088 0,-3.0052 -1.59099,-0.088 0,-2.3865 -1.85616,0 0.0884,-5.0381 -1.59099,0 0,-3.4472 10.07627,0.088 -0.17678,-10.8718 -4.33102,0 0.26516,-5.3033 4.06586,0 -0.0884,-5.2149 -6.36397,0.088 0.0884,-2.8284 -1.85615,-0.088 0.17677,-2.74 4.06587,0 0,-2.2097 3.97747,0 -0.17677,-2.033 -5.83363,0 0.0884,-3.3587 2.38649,0.088 0,-2.2982 2.2981,0.088 0.0884,-1.6793 1.14904,0 -0.0884,-9.8995 -7.6014,0.088 -0.0884,-4.2427 7.77817,-0.088 0,-8.66208 -3.0052,0 0.17678,-2.65161 -2.2981,-0.0884 0.26517,-5.12652 4.77297,-0.0884 0,-3.18198 -6.62913,0.17678 0,-11.31372 2.47487,0 0,-3.44714 4.24264,0.0884 0.17678,-9.36917 -2.47487,-0.17677 0,-3.27037 -3.00521,0 0.26517,-10.16466 5.21491,-0.0884 -0.17678,-10.6066 -9.36916,0.0884 0,-3.71232 5.74524,-0.0884 0.0884,-10.60662 3.8007,0 z"
         style="fill:#c8c8ff;stroke:#000000;stroke-width:1px;stroke-linecap:butt;stroke-linejoin:miter;stroke-opacity:1;fill-opacity:1" />
      <path
         inkscape:connector-curvature="0"
         id="path3636-4"
         d="m 199.15289,1109.085 -21.75,0 0,-10.25 5.875,-0.125 0,-1 -5.625,0 -0.125,-12.5 2.5,-0.125 -0.125,-7.625 -2.5,-0.125 0.25,-15.25 9.75,-0.125 -0.25,-1.375 -9.5,0.125 -0.25,-5.625 5.125,0 -0.125,-9.125 4.875,-0.125 0,-8.875 -9.875,0.125 0.125,-9.625 5.125,0.125 0,-5.25 -5.25,0.125 0,-9.875 9.75,0 0,-3.625 -4.125,0.25 0.125,-4.375 -3.25,0 0.25,-5 -2.375,0 0.125,-4.125 7,0.125 0,-2.375 -7.625,0.125 0,-5.125 6.5,0 0.125,-8.25 3.5,0.125 0,-6 -5.375,-0.25 -0.25,-10 5.125,0 0.375,-11.75 -9.5,0.125 -0.25,-12 3.5,-0.125 0,-4.125 -3.625,0.125 0.125,-5.75 6.25,0 -0.125,-2.75 -4.375,0.125 0,-12 20,0 -0.25,16.625 -6.375,-0.125 0,7.5 6.625,0.375 0,5.375 -9.625,-0.125 0,6.125 4.625,0.25 0,4.625 4.875,-0.25 0,7.875 -9.375,0.125 0,2.375 9.125,0.125 0,2.375 -2.125,0.125 0.125,2.625 -2.5,0.25 0,3.125 -2.25,0.125 0.375,7.25 3.5,0.125 0,2.375 3,0 0,3.125 -6.5,-0.125 0.125,6.25 3.875,0.125 -0.125,6.25 -5.25,0 0.125,5.875 3.625,-0.125 0,4 4.25,-0.125 0.125,2.375 -5.625,-0.125 0,4.875 5.625,0 -0.375,15.75 -2.375,0 0,3.375 2.5,0 0.125,15.125 -4.375,0 0,4.625 -5.375,0.125 0.25,4.25 7.375,0.125 0.125,5.875 -4.5,0 0.125,9.5 6.375,0 -0.125,5.125 -9.625,0.125 0.125,3.25 9.625,0 0,8.875 -6.75,0.125 0.125,6 3.625,-0.125 0,3.75 3,-0.125 z"
         style="fill:#c8c8ff;stroke:#000000;stroke-width:1px;stroke-linecap:butt;stroke-linejoin:miter;stroke-opacity:1;fill-opacity:1" />
      <path
         inkscape:connector-curvature="0"
         id="path3638-9"
         d="m 217.74538,916.11555 12.0625,-0.125 -0.0625,8 2.625,0.0625 0,2.9375 2.625,0.0625 0,3.1875 4.5625,-0.0625 0.125,9.875 -2.25,0.0625 0,7.9375 2,-0.0625 0.0625,8.625 -6.625,0.0625 0.0625,7.375 6.6875,0.0625 -0.125,5.375 -4.0625,-0.0625 -0.0625,4.9375 4.1875,0 -0.125,10.62501 -9.9375,0.0625 0,3.375 10.0625,-0.0625 -0.125,7.1875 -1.8125,0.0625 0.0625,2.31253 -1.4375,-0.062 0,4.62491 -3.5625,0 0.0625,7 6.75,-0.062 0,3.125 -5,0.062 0,2.6875 5,-0.125 0,4.9375 -10,-0.062 0,2.875 4.6875,0.062 0,6.4375 -4.625,0.125 0,7.1875 9.75,-0.125 0.125,8.5625 -5.3125,-0.062 0.0625,5 -4.625,-0.062 0.0625,4.0625 9.875,-0.125 -0.1875,6.375 -8.1875,0 0,4.25 5.9375,-0.125 0.0625,3.1875 2.25,-0.125 0.0625,7.75 -6.125,0.062 -0.0625,3.5625 6.125,-0.125 0.0625,6.1875 -9.75,-0.1875 0,4.6875 9.9375,0 -0.1875,9.0625 -10.0625,-0.062 0.1875,5.125 4.4375,0 0.1875,5.4375 -16.5625,0 0.125,-7.6875 6.1875,0 -0.125,-6.375 -6.1875,0 0.0625,-10.0625 2.75,-0.062 -0.0625,-3.3125 1.875,0.062 -0.125,-8.375 5.6875,0.062 0,-5.375 -3.4375,-0.125 -0.0625,-4 -6.375,0.1875 -0.125,-6.875 3.3125,-0.062 -0.1875,-5 6.75,0 0.125,-8.75 -3.625,0.1875 0.1875,-6.8125 -6.5625,0 -0.125,-10.6875 10.0625,0 -0.125,-7.625 -4.5625,0.1875 -0.25,-6.125 -5.25,-0.062 0.1875,-11.9375 4.75,0.062 -0.0625,-7.06244 5.3125,-0.0625 0,-5.125 -7.375,0.0625 0.0625,-7.4375 7.1875,0 0,-9.06251 -9.875,0 -0.0625,-7.4375 7.3125,0.125 0,-5.3125 -7.125,0 -0.0625,-7.625 9.875,0.0625 0,-3.875 -5.1875,-0.0625 -0.0625,-7.375 -4.5625,0.0625 0.0625,-4.875 6.5,0.0625 0,-6.9375 3.3125,-0.0625 -0.0625,-4.375 -10.125,-0.125 z"
         style="fill:#c8c8ff;stroke:#000000;stroke-width:1px;stroke-linecap:butt;stroke-linejoin:miter;stroke-opacity:1;fill-opacity:1" />
      <path
         inkscape:connector-curvature="0"
         id="path3640-9"
         d="m 298.56506,1108.896 21.5625,0.125 0.125,-6.75 -3.3125,0 -0.062,-5.8125 -6.6875,-0.1875 -0.125,-11.4375 10.1875,0 0,-8.6875 -4.0625,-0.1875 -0.062,-6.625 3.875,0.062 0.062,-8.25 -9.875,-0.125 0.062,-4.6875 7.9375,0 0,-3.4375 1.875,0.062 -0.1875,-11.8125 -5.3125,-0.062 -0.062,-4.375 -4.4375,-0.062 -0.062,-4.75 10.0625,0.062 0,-9.0625 -2.25,0 -0.062,-4.75 2.3125,-0.062 0.062,-5.5 -10.25,-0.062 0.062,-4.625 6.625,0 -0.062,-4.9375 3.5625,0.062 0,-8.49997 -9.6875,-0.062 0.062,-2.375 4.4375,0 -0.062,-3.5 5.25,-0.062 0,-9.75 -9.5625,0 -0.062,-6.25 7,0.125 0.062,-7.9375 2.5625,-0.062 0,-7 -6.8125,0.125 0.062,-3.8125 4.625,-0.062 0,-6.3125 -2.875,-0.062 0.062,-2.875 5.125,-0.1875 0,-8.9375 -2.75,0 -0.062,-5.25 2.625,-0.062 0.062,-14.1875 -16.5625,0 0.3125,5.1875 -5.4375,0 0.062,6.4375 9.75,0 0.062,4.6875 -9.8125,0 -0.062,8.25 4.875,-0.25 0.062,6.1875 4.6875,-0.062 0.1875,6.125 -9.75,0 -0.25,7.3125 10.0625,-0.125 0,4.6875 -10,-0.062 0.125,10.125 2.625,-0.1875 0,6.375 2.8125,0 -0.062,7.8125 -5.5,-0.125 0,9.875 1.875,-0.062 0.062,6.06247 3.875,-0.062 -0.1875,8.375 -5.625,0.062 0.062,7.25 10.1875,0 -0.1875,4.625 -5.0625,-0.125 -0.062,5.5625 -4.875,-0.062 0.062,6.6875 6.8125,0 -0.062,6.4375 -6.6875,0.125 0,8.9375 3,-0.062 0,8.875 6.5625,-0.062 0.062,2.5 -4.625,0 0.062,4.5 -5.0625,-0.062 0.1875,9.6875 9.5625,-0.1875 -0.125,2.25 -6.5,-0.062 -0.1875,5.375 2.25,0 -0.1875,7.625 4.875,0.1875 -0.3125,6 -9.5625,0.062 z"
         style="fill:#c8c8ff;stroke:#000000;stroke-width:1px;stroke-linecap:butt;stroke-linejoin:miter;stroke-opacity:1;fill-opacity:1" />
      <path
         inkscape:connector-curvature="0"
         id="path3642-4"
         d="m 136.98887,1108.8656 21.83187,0.088 0.17678,-14.9376 -10.07625,-0.1768 -0.088,-4.0658 4.6846,0 0,-4.8614 5.48004,-0.1768 0,-7.4246 -3.09354,-0.088 0.1767,-5.3033 2.74006,0 -0.0884,-6.5407 -9.81106,-0.2652 0,-4.331 9.81106,0.088 0,-8.7505 -2.91676,0 0.088,-5.8336 -3.8891,0 -0.088,-3.624 6.80586,-0.088 0,-6.1871 -9.72276,0.3535 0,-3.6239 7.6014,0 0.088,-6.364 2.20975,0.088 -0.26517,-8.0433 -2.47488,-0.088 0,-6.1872 2.65166,-0.2652 0.17678,-8.3085 -10.16464,0 0.088,-5.83357 4.5078,-0.088 0,-4.8614 5.39167,-0.088 -0.0884,-13.3466 -2.74007,0 0.088,-6.9827 2.82846,0 -0.17678,-8.39689 -9.63428,-0.088 0,-5.0381 5.8336,0.1768 -0.088,-6.364 4.06584,-0.1768 -0.0884,-6.8943 -7.15944,-0.2651 0.1768,-5.3917 6.89425,-0.088 0.17678,-6.364 -8.30853,0.088 0,-5.2149 8.30853,0.088 -0.0884,-12.5512 -21.74353,-0.1767 -0.2652,10.0762 4.9498,-0.1767 -0.1768,14.3189 -4.5078,0 0.1768,9.0156 9.8111,-0.1768 0,6.8059 -5.5685,-0.088 0,8.4853 -4.331,0.1768 0.088,8.57369 2.2097,-0.1768 0,9.6343 4.0659,-0.1768 0,5.9221 -6.1872,0.088 -0.1768,11.1369 9.8111,-0.088 -0.2651,13.25817 -9.546,-0.1768 0,8.8389 3.3588,-0.088 -0.1768,8.3969 -3.182,0 -0.088,7.071 5.6569,-0.088 0.088,7.2479 -5.6569,0.1768 0,11.4905 2.9168,-0.1768 0.1768,5.4801 -3.3588,0 0.3536,15.1144 4.0659,-0.1768 -0.1768,8.9272 5.8336,-0.1768 0.088,3.2704 -3.0936,-0.088 0.1768,9.546 2.9168,0 0,3.1819 -9.9879,0 z"
         style="fill:#c8c8ff;stroke:#000000;stroke-width:1px;stroke-linecap:butt;stroke-linejoin:miter;stroke-opacity:1;fill-opacity:1" />
    </g>
  </g>
</svg>
