<?xml version="1.0" encoding="UTF-8" standalone="no"?>
<!-- Created with Inkscape (http://www.inkscape.org/) -->

<svg
   xmlns:dc="http://purl.org/dc/elements/1.1/"
   xmlns:cc="http://creativecommons.org/ns#"
   xmlns:rdf="http://www.w3.org/1999/02/22-rdf-syntax-ns#"
   xmlns:svg="http://www.w3.org/2000/svg"
   xmlns="http://www.w3.org/2000/svg"
   xmlns:sodipodi="http://sodipodi.sourceforge.net/DTD/sodipodi-0.dtd"
   xmlns:inkscape="http://www.inkscape.org/namespaces/inkscape"
   width="669.685"
   height="708.66138"
   id="svg2985"
   version="1.1"
   inkscape:version="0.48.3.1 r9886"
   sodipodi:docname="warehouse_OGM_noisy_b.svg">
  <defs
     id="defs2987" />
  <sodipodi:namedview
     inkscape:document-units="mm"
     pagecolor="#ffffff"
     bordercolor="#666666"
     borderopacity="1.0"
     inkscape:pageopacity="0.0"
     inkscape:pageshadow="2"
     inkscape:zoom="2"
     inkscape:cx="532.67074"
     inkscape:cy="426.46845"
     inkscape:current-layer="layer1"
     id="namedview2989"
     showgrid="false"
     inkscape:snap-grids="true"
     inkscape:window-width="1871"
     inkscape:window-height="1176"
     inkscape:window-x="49"
     inkscape:window-y="24"
     inkscape:window-maximized="1"
     units="mm" />
  <metadata
     id="metadata2991">
    <rdf:RDF>
      <cc:Work
         rdf:about="">
        <dc:format>image/svg+xml</dc:format>
        <dc:type
           rdf:resource="http://purl.org/dc/dcmitype/StillImage" />
        <dc:title />
      </cc:Work>
    </rdf:RDF>
  </metadata>
  <g
     inkscape:label="Layer 1"
     inkscape:groupmode="layer"
     id="layer1"
     transform="translate(0,-35.433097)">
    <rect
       style="fill:#c8c8ff;fill-opacity:1;fill-rule:nonzero;stroke:none"
       id="rect3187"
       width="674.57983"
       height="712.76367"
       x="-0.72077024"
       y="35.088203" />
    <path
       style="fill:#fafafa;fill-opacity:1;stroke:#000000;stroke-width:1.00100005;stroke-linecap:butt;stroke-linejoin:miter;stroke-miterlimit:4;stroke-opacity:1;stroke-dasharray:none"
       d="m 543.56284,70.35346 -477.14322,136.16613 -0.16183,497.46422 291.55315,0.0949 0.5191,-277.38342 266.01061,-76.22252 z"
       id="path3190"
       inkscape:connector-curvature="0"
       sodipodi:nodetypes="ccccccc" />
    <g
       id="g4727"
       style="fill:#c8c8ff;fill-opacity:1">
      <path
         inkscape:connector-curvature="0"
         id="path3632"
         d="m 302.16919,476.37221 21.6875,0.0625 0.0625,4.0625 -2.25,0.0625 0.0625,11.75 2.25,0.0625 -0.0625,7.9375 -7.125,0.0625 0,5.9375 7.1875,0 0.125,18.3125 -3.875,0.125 0,7.6875 3.625,0 -0.125,9.875 -6,0.125 0,6.1875 6.1875,0 0,7.6875 -1.9375,0 0,6.375 2,0 -0.0625,2.875 -3.5,0.0625 0.0625,2.0625 3.4375,0 -0.0625,5.1875 -1.5,-0.0625 0,3 1.6875,0 0,11.375 -4.25,-0.0625 0,1.75 4.0625,0 0.0625,8.125 0,14.125 -2,0 0.0625,9.875 2,0.125 0,6.0625 -2.625,0 0,1.875 -2.375,0.0625 0,2.75 5,0 0,9.3125 -2.5,-0.0625 0,2.1875 2.625,0.0625 0,2.0625 -6.375,-0.125 0.0625,1.8125 6.1875,0 -0.0625,3.3125 -2,0 0.0625,1.8125 -1.3125,-0.0625 0.0625,2.4375 3.3125,0.0625 -0.0625,8.625 -2.0625,0 0,1.8125 2.0625,0 0.0625,4.3125 -17.5,-0.0625 0.0625,-5.3125 -2,0.0625 0.0625,-2.8125 3.3125,0.0625 0,-3.75 -5.6875,0.125 -0.0625,-12.375 9.9375,0.0625 0,-4.3125 -9.875,-0.0625 0,-2.1875 7.375,0.0625 0,-10.375 -3.4375,-0.0625 0.0625,-7.4375 -4.0625,0.0625 0,-5.75 1.75,0.0625 -0.1875,-8.9375 2.4375,0.0625 -0.125,-4.6875 2.5,0 -0.125,-5.0625 -6.1875,0 0,-15 1.875,0 -0.0625,-2.4375 6.625,0.0625 -0.0625,-3 1.5,0.0625 -0.0625,-3.625 -9.875,-0.0625 0,-3.625 3.25,0 -0.0625,-4.3125 3.1875,0 -0.0625,-4 -6.25,0 0.0625,-8 2.3125,0 -0.0625,-2.0625 7.5625,0 0,-2.125 -9.9375,-0.125 0,-9.6875 2.1875,0.0625 0,-4.1875 3.625,0.0625 0,-3.3125 -5.75,0 0,-6.75 3.875,0.0625 0,-3.4375 5.9375,0.0625 -0.125,-7.125 -9.625,0.0625 -0.0625,-13.625 9.5625,0 0,-3.5625 -2.8125,0.0625 0,-3.875 -2.875,-0.0625 0,-3.625 -3.8125,0.125 z"
         style="fill:#c8c8ff;stroke:#000000;stroke-width:1px;stroke-linecap:butt;stroke-linejoin:miter;stroke-opacity:1;fill-opacity:1" />
      <path
         inkscape:connector-curvature="0"
         id="path3634"
         d="m 261.96789,476.36403 21.56676,0.0884 0.0884,6.62912 -9.98788,-0.0884 0,6.36396 5.83363,0 0.0884,3.62392 3.88908,0 0.0884,7.33623 -6.45235,0.17678 0.0884,2.74004 6.27557,0 0,10.34143 -1.41421,0.0884 -0.0884,2.74004 -3.09359,0.0884 0,3.0052 4.68458,-0.0884 0.0884,5.12652 -9.63433,0 -0.17678,11.22532 9.72272,-0.0884 -0.0884,4.86136 -2.38648,0 0,3.27037 2.47487,-0.17678 0.0884,5.03814 -1.5026,0.0884 -0.0884,2.38648 1.41421,-0.0884 -0.0884,7.51301 -7.33623,0.0884 0,2.56326 7.33623,-0.17677 0.0884,5.83363 -4.41941,0 0.0884,2.56326 4.33103,-0.0884 0,3.44715 -6.71751,0.0884 0.0884,3.35875 6.54073,0 0.17678,12.10921 -9.89949,0.0884 0,1.591 9.72271,-0.0884 0,6.98268 -9.54594,0.0884 0,3.62393 1.94455,0 0,3.0052 2.03293,0 0,1.5026 3.53553,-0.0884 -0.0884,1.32583 2.12132,-0.0884 0,6.36396 -3.62392,0 0.0884,2.56326 3.71231,0.0884 -0.17678,5.48008 -2.82842,0.0884 0,4.15425 3.0052,-0.0884 -0.0884,7.95495 -4.41941,0.0884 0.0884,1.76777 3.27037,0 0,2.38648 1.14905,-0.0884 0,8.13172 -9.89949,0.0884 -0.0884,3.18198 2.29809,0 0,1.50261 5.92202,-0.0884 0,3.62392 1.76777,0 0.0884,15.73313 -21.65515,0 -0.0884,-8.75045 3.80069,0.0884 -0.17677,-15.37958 3.53553,0 -0.0884,-5.83363 -7.15945,0 0.0884,-4.33103 4.94974,-0.0884 0,-3.00521 1.59099,-0.0884 0,-2.38648 1.85616,0 -0.0884,-5.03814 1.59099,0 0,-3.44714 -10.07627,0.0884 0.17678,-10.87177 4.33102,0 -0.26516,-5.3033 -4.06586,0 0.0884,-5.21491 6.36397,0.0884 -0.0884,-2.82842 1.85615,-0.0884 -0.17677,-2.74004 -4.06587,0 0,-2.20971 -3.97747,0 0.17677,-2.03293 5.83363,0 -0.0884,-3.35876 -2.38649,0.0884 0,-2.2981 -2.2981,0.0884 -0.0884,-1.67938 -1.14904,0 0.0884,-9.89949 7.6014,0.0884 0.0884,-4.24264 -7.77817,-0.0884 0,-8.66206 3.0052,0 -0.17678,-2.65165 2.2981,-0.0884 -0.26517,-5.12652 -4.77297,-0.0884 0,-3.18198 6.62913,0.17677 0,-11.31371 -2.47487,0 0,-3.44714 -4.24264,0.0884 -0.17678,-9.36917 2.47487,-0.17677 0,-3.27037 3.00521,0 -0.26517,-10.16466 -5.21491,-0.0884 0.17678,-10.6066 9.36916,0.0884 0,-3.71232 -5.74524,-0.0884 -0.0884,-10.60661 -3.8007,0 z"
         style="fill:#c8c8ff;stroke:#000000;stroke-width:1px;stroke-linecap:butt;stroke-linejoin:miter;stroke-opacity:1;fill-opacity:1" />
      <path
         inkscape:connector-curvature="0"
         id="path3636"
         d="m 221.5,476.40698 21.75,0 0,10.25 -5.875,0.125 0,1 5.625,0 0.125,12.5 -2.5,0.125 0.125,7.625 2.5,0.125 -0.25,15.25 -9.75,0.125 0.25,1.375 9.5,-0.125 0.25,5.625 -5.125,0 0.125,9.125 -4.875,0.125 0,8.875 9.875,-0.125 -0.125,9.625 -5.125,-0.125 0,5.25 5.25,-0.125 0,9.875 -9.75,0 0,3.625 4.125,-0.25 -0.125,4.375 3.25,0 -0.25,5 2.375,0 -0.125,4.125 -7,-0.125 0,2.375 7.625,-0.125 0,5.125 -6.5,0 -0.125,8.25 -3.5,-0.125 0,6 5.375,0.25 0.25,10 -5.125,0 -0.375,11.75 9.5,-0.125 0.25,12 -3.5,0.125 0,4.125 3.625,-0.125 -0.125,5.75 -6.25,0 0.125,2.75 4.375,-0.125 0,12 -20,0 0.25,-16.625 6.375,0.125 0,-7.5 -6.625,-0.375 0,-5.375 9.625,0.125 0,-6.125 -4.625,-0.25 0,-4.625 -4.875,0.25 0,-7.875 9.375,-0.125 0,-2.375 -9.125,-0.125 0,-2.375 2.125,-0.125 -0.125,-2.625 2.5,-0.25 0,-3.125 2.25,-0.125 -0.375,-7.25 -3.5,-0.125 0,-2.375 -3,0 0,-3.125 6.5,0.125 -0.125,-6.25 -3.875,-0.125 0.125,-6.25 5.25,0 -0.125,-5.875 -3.625,0.125 0,-4 -4.25,0.125 -0.125,-2.375 5.625,0.125 0,-4.875 -5.625,0 0.375,-15.75 2.375,0 0,-3.375 -2.5,0 -0.125,-15.125 4.375,0 0,-4.625 5.375,-0.125 -0.25,-4.25 -7.375,-0.125 -0.125,-5.875 4.5,0 -0.125,-9.5 -6.375,0 0.125,-5.125 9.625,-0.125 -0.125,-3.25 -9.625,0 0,-8.875 6.75,-0.125 -0.125,-6 -3.625,0.125 0,-3.75 -3,0.125 z"
         style="fill:#c8c8ff;stroke:#000000;stroke-width:1px;stroke-linecap:butt;stroke-linejoin:miter;stroke-opacity:1;fill-opacity:1" />
      <path
         inkscape:connector-curvature="0"
         id="path3638"
         d="m 181.15625,476.68823 12.0625,-0.125 -0.0625,8 2.625,0.0625 0,2.9375 2.625,0.0625 0,3.1875 4.5625,-0.0625 0.125,9.875 -2.25,0.0625 0,7.9375 2,-0.0625 0.0625,8.625 -6.625,0.0625 0.0625,7.375 6.6875,0.0625 -0.125,5.375 -4.0625,-0.0625 -0.0625,4.9375 4.1875,0 -0.125,10.625 -9.9375,0.0625 0,3.375 10.0625,-0.0625 -0.125,7.1875 -1.8125,0.0625 0.0625,2.3125 -1.4375,-0.0625 0,4.625 -3.5625,0 0.0625,7 6.75,-0.0625 0,3.125 -5,0.0625 0,2.6875 5,-0.125 0,4.9375 -10,-0.0625 0,2.875 4.6875,0.0625 0,6.4375 -4.625,0.125 0,7.1875 9.75,-0.125 0.125,8.5625 -5.3125,-0.0625 0.0625,5 -4.625,-0.0625 0.0625,4.0625 9.875,-0.125 -0.1875,6.375 -8.1875,0 0,4.25 5.9375,-0.125 0.0625,3.1875 2.25,-0.125 0.0625,7.75 -6.125,0.0625 -0.0625,3.5625 6.125,-0.125 0.0625,6.1875 -9.75,-0.1875 0,4.6875 9.9375,0 -0.1875,9.0625 -10.0625,-0.0625 0.1875,5.125 4.4375,0 0.1875,5.4375 -16.5625,0 0.125,-7.6875 6.1875,0 -0.125,-6.375 -6.1875,0 0.0625,-10.0625 2.75,-0.0625 -0.0625,-3.3125 1.875,0.0625 -0.125,-8.375 5.6875,0.0625 0,-5.375 -3.4375,-0.125 -0.0625,-4 -6.375,0.1875 -0.125,-6.875 3.3125,-0.0625 -0.1875,-5 6.75,0 0.125,-8.75 -3.625,0.1875 0.1875,-6.8125 -6.5625,0 -0.125,-10.6875 10.0625,0 -0.125,-7.625 -4.5625,0.1875 -0.25,-6.125 -5.25,-0.0625 0.1875,-11.9375 4.75,0.0625 -0.0625,-7.0625 5.3125,-0.0625 0,-5.125 -7.375,0.0625 0.0625,-7.4375 7.1875,0 0,-9.0625 -9.875,0 -0.0625,-7.4375 7.3125,0.125 0,-5.3125 -7.125,0 -0.0625,-7.625 9.875,0.0625 0,-3.875 -5.1875,-0.0625 -0.0625,-7.375 -4.5625,0.0625 0.0625,-4.875 6.5,0.0625 0,-6.9375 3.3125,-0.0625 -0.0625,-4.375 -10.125,-0.125 z"
         style="fill:#c8c8ff;stroke:#000000;stroke-width:1px;stroke-linecap:butt;stroke-linejoin:miter;stroke-opacity:1;fill-opacity:1" />
      <path
         inkscape:connector-curvature="0"
         id="path3640"
         d="m 140.7997,476.48993 21.5625,-0.125 0.125,6.75 -3.3125,0 -0.0625,5.8125 -6.6875,0.1875 -0.125,11.4375 10.1875,0 0,8.6875 -4.0625,0.1875 -0.0625,6.625 3.875,-0.0625 0.0625,8.25 -9.875,0.125 0.0625,4.6875 7.9375,0 0,3.4375 1.875,-0.0625 -0.1875,11.8125 -5.3125,0.0625 -0.0625,4.375 -4.4375,0.0625 -0.0625,4.75 10.0625,-0.0625 0,9.0625 -2.25,0 -0.0625,4.75 2.3125,0.0625 0.0625,5.5 -10.25,0.0625 0.0625,4.625 6.625,0 -0.0625,4.9375 3.5625,-0.0625 0,8.5 -9.6875,0.0625 0.0625,2.375 4.4375,0 -0.0625,3.5 5.25,0.0625 0,9.75 -9.5625,0 -0.0625,6.25 7,-0.125 0.0625,7.9375 2.5625,0.0625 0,7 -6.8125,-0.125 0.0625,3.8125 4.625,0.0625 0,6.3125 -2.875,0.0625 0.0625,2.875 5.125,0.1875 0,8.9375 -2.75,0 -0.0625,5.25 2.625,0.0625 0.0625,14.1875 -16.5625,0 0.3125,-5.1875 -5.4375,0 0.0625,-6.4375 9.75,0 0.0625,-4.6875 -9.8125,0 -0.0625,-8.25 4.875,0.25 0.0625,-6.1875 4.6875,0.0625 0.1875,-6.125 -9.75,0 -0.25,-7.3125 10.0625,0.125 0,-4.6875 -10,0.0625 0.125,-10.125 2.625,0.1875 0,-6.375 2.8125,0 -0.0625,-7.8125 -5.5,0.125 0,-9.875 1.875,0.0625 0.0625,-6.0625 3.875,0.0625 -0.1875,-8.375 -5.625,-0.0625 0.0625,-7.25 10.1875,0 -0.1875,-4.625 -5.0625,0.125 -0.0625,-5.5625 -4.875,0.0625 0.0625,-6.6875 6.8125,0 -0.0625,-6.4375 -6.6875,-0.125 0,-8.9375 3,0.0625 0,-8.875 6.5625,0.0625 0.0625,-2.5 -4.625,0 0.0625,-4.5 -5.0625,0.0625 0.1875,-9.6875 9.5625,0.1875 -0.125,-2.25 -6.5,0.0625 -0.1875,-5.375 2.25,0 -0.1875,-7.625 4.875,-0.1875 -0.3125,-6 -9.5625,-0.0625 z"
         style="fill:#c8c8ff;stroke:#000000;stroke-width:1px;stroke-linecap:butt;stroke-linejoin:miter;stroke-opacity:1;fill-opacity:1" />
      <path
         inkscape:connector-curvature="0"
         id="path3642"
         d="m 100.33374,476.42209 21.83192,-0.0884 0.17678,14.93763 -10.07627,0.17678 -0.0884,4.06586 4.68458,0 0,4.86136 5.48008,0.17678 0,7.42462 -3.09359,0.0884 0.17677,5.30331 2.74004,0 -0.0884,6.54073 -9.8111,0.26517 0,4.33103 9.8111,-0.0884 0,8.75045 -2.91681,0 0.0884,5.83363 -3.88909,0 -0.0884,3.62392 6.8059,0.0884 0,6.18718 -9.72272,-0.35355 0,3.62392 7.6014,0 0.0884,6.36396 2.20971,-0.0884 -0.26517,8.04334 -2.47487,0.0884 0,6.18719 2.65165,0.26516 0.17678,8.30851 -10.16466,0 0.0884,5.83363 4.5078,0.0884 0,4.86136 5.39169,0.0884 -0.0884,13.34664 -2.74004,0 0.0884,6.98268 2.82843,0 -0.17678,8.3969 -9.63433,0.0884 0,5.03814 5.83363,-0.17678 -0.0884,6.36396 4.06586,0.17678 -0.0884,6.89429 -7.15946,0.26517 0.17678,5.39169 6.89429,0.0884 0.17678,6.36397 -8.30851,-0.0884 0,5.21491 8.30851,-0.0884 -0.0884,12.55115 -21.74353,0.17677 -0.26517,-10.07627 4.94975,0.17678 -0.17678,-14.31891 -4.5078,0 0.17677,-9.01562 9.81111,0.17678 0,-6.8059 -5.56847,0.0884 0,-8.48528 -4.33102,-0.17678 0.0884,-8.57367 2.20971,0.17678 0,-9.63433 4.06587,0.17677 0,-5.92202 -6.18719,-0.0884 -0.17677,-11.13693 9.8111,0.0884 -0.26516,-13.25825 -9.54594,0.17678 0,-8.83884 3.35875,0.0884 -0.17677,-8.39689 -3.18198,0 -0.0884,-7.07107 5.65685,0.0884 0.0884,-7.24785 -5.65685,-0.17677 0,-11.49049 2.91681,0.17678 0.17678,-5.48008 -3.35876,0 0.35355,-15.11441 4.06587,0.17678 -0.17678,-8.92722 5.83363,0.17677 0.0884,-3.27037 -3.09359,0.0884 0.17678,-9.54594 2.91681,0 0,-3.18198 -9.98788,0 z"
         style="fill:#c8c8ff;stroke:#000000;stroke-width:1px;stroke-linecap:butt;stroke-linejoin:miter;stroke-opacity:1;fill-opacity:1" />
    </g>
    <path
       style="fill:#c8c8ff;fill-opacity:1;stroke:#000000;stroke-width:1px;stroke-linecap:butt;stroke-linejoin:miter;stroke-opacity:1"
       d="m 506.68538,324.185 -7.38352,2.14038 0.53945,1.86089 -6.12282,1.77492 -0.55685,-1.92092 -2.74391,0.8605 0.91493,3.37887 -1.99835,0.51422 -0.95708,-3.30158 -4.96497,1.50436 0.47718,1.42342 -2.88137,0.83527 -0.46985,-1.62077 -10.92521,3.16707 1.24285,4.06468 -1.6808,0.48725 -1.1311,-3.90187 -7.82112,2.20217 -13.56648,3.93274 0.55685,1.92091 -9.50193,2.68941 -0.6769,-1.88611 -5.82278,1.68794 0.73086,2.5212 -1.80086,0.52205 0.60171,2.29835 -2.64126,0.76566 -1.39212,-4.80229 -8.94427,2.59282 0.75561,2.38389 -2.101,0.60905 -0.79041,-2.50394 -1.98095,0.57425 1.89501,6.08812 -1.75823,0.44461 -1.72275,-5.94283 -3.16411,0.9823 0.55684,1.92092 -1.75823,0.44461 0.42498,1.24334 -2.35852,0.61863 -0.98182,-3.16425 -8.26656,2.46143 0.57425,1.98095 -1.74083,0.50464 -0.57425,-1.98095 -4.15937,1.14068 4.93196,16.79076 5.08503,-1.53916 0.4973,1.93818 2.68389,-0.8431 -0.98183,-3.16425 3.60172,-1.04409 1.46348,5.49741 11.90307,-3.38547 -2.82638,-9.52729 4.14197,-1.2007 2.80899,9.46726 2.101,-0.60905 -2.11292,-7.06612 9.96475,-2.88865 1.01663,3.28432 7.12601,-2.13081 1.07155,3.91913 5.52263,-1.60094 -0.54679,-1.66354 8.6363,-2.30833 -0.7382,-2.32385 4.53695,-1.18506 -0.69606,-2.40114 4.89712,-1.28947 1.72275,5.94284 14.40687,-4.17636 -0.52204,-1.80086 2.35852,-0.61863 -1.90411,-6.34577 2.89878,-0.77524 -0.47719,-1.42343 3.49907,-0.94926 2.80898,9.46727 3.48166,-1.00929 -0.90488,-3.12149 4.15938,-1.14067 -0.88747,-3.06146 3.85923,-1.05367 1.74015,6.00286 11.84295,-3.36803 z m 27.81536,10.41746 3.30157,-0.95708 -1.71317,-5.68532 6.87807,-1.86371 2.6198,9.26181 13.10365,-3.73349 -2.66243,-9.18438 3.42163,-0.99189 0.72304,2.71869 3.72178,-1.07889 0.8605,2.74391 3.48166,-1.00928 0.94143,3.69655 12.95595,-3.56054 -6.09834,-20.81253 -3.91927,1.07106 0.56643,2.17844 -11.30279,3.21145 -0.68648,-2.14363 -7.60624,2.27002 1.92375,6.86066 -5.70273,1.65314 -2.00117,-6.90329 -17.87319,5.10358 z"
       id="path3632-6"
       inkscape:connector-curvature="0"
       sodipodi:nodetypes="ccccccccccccccccccccccccccccccccccccccccccccccccccccccccccccccccccccccccccccccccccccccccccccccccccccccccccccccccc" />
    <path
       style="fill:#c8c8ff;fill-opacity:1;stroke:#000000;stroke-width:1px;stroke-linecap:butt;stroke-linejoin:miter;stroke-opacity:1"
       d="m 484.28121,246.872 -9.66007,2.80171 1.95768,7.07075 -2.46189,0.71367 -1.87287,-7.09534 -5.62754,1.53931 1.23047,4.24466 -2.48646,0.62875 -1.12134,-4.18428 -3.31089,0.95979 1.78579,6.47638 -3.2505,0.85024 -1.8211,-6.2821 -11.6797,3.20173 2.67174,9.53255 -1.52809,0.44297 -2.62251,-9.36276 -6.7065,1.94413 2.5733,9.19297 -3.48071,1.00901 -0.5414,-1.86766 -2.88637,0.83672 -0.56602,-1.95254 -1.44318,0.41836 -0.89986,-3.42023 -1.24876,0.45404 -0.50611,-2.06194 -6.11235,1.77188 1.00898,3.48063 -2.48646,0.62875 -1.11811,-3.54102 -5.21419,1.69558 0.70298,2.74108 -3.98994,1.15663 -0.7522,-2.91087 -7.61583,2.29977 1.14595,4.26916 -1.72251,0.40729 -0.91055,-3.14105 -2.29204,0.66443 -0.2354,-1.12812 -7.81026,2.26409 2.67174,9.53255 -3.03147,0.97082 -0.63985,-2.20722 -1.44328,0.41839 -1.56431,-5.71236 -3.4806,1.00898 -0.49219,-1.69787 -15.1356,4.29557 6.02931,20.79887 8.429,-2.35142 -1.14272,-3.6259 14.82078,-4.1123 -0.98438,-3.39573 5.62755,-1.5393 1.99336,6.87635 4.13513,-1.29076 -1.29361,-4.77852 2.88637,-0.83672 -0.35845,-1.55258 2.29214,-0.66446 -0.5168,-1.78276 4.8635,-1.31783 -0.44297,-1.52807 3.31089,-0.95979 2.72095,9.70234 10.39269,-3.19676 -1.20586,-4.15976 5.16743,-1.22189 1.13203,3.90509 4.98408,-1.53686 -1.8564,-6.08783 2.74118,-0.70258 -0.43228,-1.80726 2.68087,-0.5931 1.13204,3.9051 2.12232,-0.61524 1.10742,3.8202 1.9034,-0.73582 -1.62422,-5.60296 3.2505,-0.85023 0.57994,2.31662 2.20732,-0.63987 0.55533,2.23173 1.63751,-0.38265 0.31992,1.1036 9.48344,-2.84116 -2.20093,-7.27633 4.05032,-1.26617 2.25015,7.44611 8.31957,-2.41173 -0.83672,-2.88637 2.59598,-0.56848 -0.55494,-2.23185 4.99764,-1.17266 1.41381,4.55963 3.18116,-0.76094 z m 28.19511,11.79789 3.14105,-0.91055 -0.83672,-2.88638 9.83656,-2.5754 1.53686,4.98409 10.13798,-3.12292 -2.6935,-8.97407 3.56553,-1.0336 1.68451,5.49345 10.21183,-2.86823 1.05821,3.65041 9.40877,-3.09554 -6.0896,-20.68936 -6.39161,1.7608 2.86577,9.56833 -6.11232,1.77188 -1.62422,-5.60296 -3.50524,0.92408 -1.08281,-3.7353 -7.07075,1.95768 1.62669,6.24643 -2.6563,0.67799 -1.74727,-6.02742 -9.93251,2.8793 0.30884,1.3829 -2.60708,0.8478 0.77642,2.99587 -2.88636,0.83672 -1.2194,-4.52395 -4.94842,1.34244 z"
       id="path3634-0"
       inkscape:connector-curvature="0"
       sodipodi:nodetypes="cccccccccccccccccccccccccccccccccccccccccccccccccccccccccccccccccccccccccccccccccccccccccccccccccccccccccccccccccccccccccccccccccc" />
    <path
       style="fill:#c8c8ff;fill-opacity:1;stroke:#000000;stroke-width:1px;stroke-linecap:butt;stroke-linejoin:miter;stroke-opacity:1"
       d="m 487.61687,171.6448 11.38979,-2.91131 -2.76508,-9.08955 11.45589,-3.5812 1.09454,3.3268 3.96189,-1.14849 -1.12934,-3.44686 5.55744,-1.48088 1.74015,6.00286 2.60645,-0.88572 -1.33816,-4.1672 11.5255,-3.34109 5.56848,19.20917 -16.03723,4.38868 -1.65489,-6.15773 -7.20344,2.08818 1.48439,6.46745 -5.16247,1.49653 -2.55977,-9.27922 -5.88281,1.70535 1.0476,4.51172 -4.44212,1.28771 1.59743,4.61263 -7.56361,2.19259 z m -21.60493,12.11956 -5.96806,1.8602 0.95884,3.75658 -6.03767,1.62009 -1.46172,-5.0424 -5.60789,1.75579 1.12934,3.44686 -3.84183,1.1137 1.30335,4.04714 -2.24628,0.78132 -1.44608,-5.43739 -4.68223,1.35732 1.56613,5.40258 -15.23163,4.025 -0.66125,-2.28109 -3.24155,0.93968 0.69606,2.40115 -14.49213,4.33122 -1.2181,-4.20201 -4.44212,1.28771 -1.61659,-5.12766 -4.01234,1.42342 1.93332,7.11818 -5.60789,1.7558 -1.25291,-4.32206 -9.08955,2.76508 1.77495,6.12292 -4.95715,1.30687 -2.79989,-9.20961 -3.08668,1.02493 2.67983,9.24441 -8.52407,2.47101 -1.99942,-6.44829 -5.72794,1.7906 1.12934,3.44686 -3.60172,1.04409 0.95533,2.84657 -5.52264,1.60094 -6.05571,-20.88997 9.84469,-2.85384 1.7558,5.60789 0.96046,-0.27843 -1.56614,-5.40257 11.97093,-3.60036 0.81612,2.36634 7.28869,-2.24304 -0.576,-2.43594 14.71659,-4.00585 2.83469,9.32966 1.25103,-0.62294 -2.76509,-9.08956 5.33297,-1.80624 1.42693,4.92234 8.72938,-2.66067 1.47737,4.64743 8.52407,-2.47101 -2.8695,-9.44972 9.27922,-2.55977 1.30686,4.95715 5.04241,-1.46173 -1.58178,-5.0076 9.48452,-2.74944 2.71463,9.36447 3.48167,-1.00928 -1.38862,-3.89229 4.23681,-1.09805 -0.90488,-3.12149 4.8719,-1.152 -0.66126,-2.28109 3.9967,-1.02844 1.82891,6.75801 2.28109,-0.66125 -2.24304,-7.2887 4.92235,-1.42692 z"
       id="path3636-4"
       inkscape:connector-curvature="0"
       sodipodi:nodetypes="cccccccccccccccccccccccccccccccccccccccccccccccccccccccccccccccccccccccccccccccccccccccccccccccccccc" />
    <path
       style="fill:#c8c8ff;fill-opacity:1;stroke:#000000;stroke-width:1px;stroke-linecap:butt;stroke-linejoin:miter;stroke-opacity:1"
       d="m 497.83177,208.34438 5.10243,-1.47912 -1.98377,-6.84327 7.3061,-2.18301 2.6894,9.50193 3.72178,-1.07889 -1.3843,-4.99978 7.06598,-2.11341 -1.33033,-4.36469 4.69963,-1.29728 1.74973,6.26038 6.66318,-1.93157 0.9823,3.16412 4.18461,-1.27814 -2.69899,-9.75944 7.67729,-2.03032 3.47854,11.55073 -7.70107,2.16736 0.67084,2.5386 -2.82135,0.81787 0.67084,2.53861 -3.06147,0.88747 1.33034,4.36469 -9.44972,2.8695 -0.68648,-2.14363 -7.62364,2.20998 0.61688,1.90352 -8.26656,2.46143 -1.90458,-6.34563 -7.06598,2.1134 z m -18.87497,20.63363 -6.93809,1.88112 -0.56467,-1.72343 -2.20369,0.70389 -0.34069,-1.39792 -4.44203,1.28768 -0.99189,-3.42163 -6.7058,2.00899 1.93891,6.46584 -3.00144,0.87007 -1.45166,-4.78503 -2.58123,0.74827 1.51217,4.76748 -4.74226,1.37472 -2.72469,-9.62184 -2.76132,0.80046 1.24557,4.51942 -6.18296,1.79235 -1.40776,-4.40732 -6.9033,2.00117 2.83469,9.32967 -8.18912,2.50406 -1.41958,-5.1197 -4.78489,1.45215 -1.22816,-4.45938 -3.88446,1.19112 2.86949,9.44973 -6.17512,1.59486 -2.2796,-7.86375 -4.08195,1.1833 1.7732,5.66792 -3.04406,0.9475 0.74651,2.12623 -7.42615,2.21782 -1.76489,-5.86555 -3.43903,0.93186 1.8254,5.848 -5.92544,1.78278 -2.53454,-9.41668 -4.50215,1.30512 2.76684,9.54455 -8.75636,2.34313 -2.74209,-9.68187 -4.87015,1.607 1.23551,4.26204 -5.17029,1.69401 -4.61139,-15.90759 7.41832,-2.02032 1.72275,5.94283 6.08812,-1.89501 -1.72275,-5.94283 9.68201,-2.74161 0.82522,2.62399 3.16412,-0.9823 0.46249,1.81812 8.00904,-2.45186 1.52398,5.47987 5.16247,-1.49653 -0.83703,-3.33638 3.82443,-1.17372 -1.95503,-6.07072 6.56834,-2.03422 0.98183,3.16426 4.75009,-1.57221 1.87936,6.4831 8.43881,-2.31615 -1.18937,-3.42946 6.59533,-1.71668 -1.82716,-6.30301 10.2301,-3.09571 2.80164,9.66461 7.28869,-2.24303 -1.4504,-4.32989 5.8132,-1.94546 -1.40217,-5.05967 11.51767,-3.1436 1.26297,4.57944 6.76578,-2.02638 1.53915,5.08503 4.92235,-1.42692 z"
       id="path3638-9"
       inkscape:connector-curvature="0"
       sodipodi:nodetypes="cccccccccccccccccccccccccccccccccccccccccccccccccccccccccccccccccccccccccccccccccccccccccccccccccccccccccccccccc" />
    <path
       style="fill:#c8c8ff;fill-opacity:1;stroke:#000000;stroke-width:1px;stroke-linecap:butt;stroke-linejoin:miter;stroke-opacity:1"
       d="m 495.28296,285.42095 -9.48453,2.74944 0.58159,1.78359 -5.80548,1.74749 1.13844,3.70451 -8.09605,2.15171 -1.62568,-5.38531 -6.94606,2.07812 2.83644,9.78467 -4.49432,1.10762 -1.28946,-4.89712 -5.35981,1.48918 -1.29777,-4.69949 -6.4058,1.9215 1.89676,6.54313 -6.20022,1.7328 -1.98201,-6.38826 -8.5841,2.48841 0.89482,2.86412 -8.52407,2.47101 1.88671,6.28574 -2.38388,0.75561 -1.28771,-4.44212 -4.3048,1.31246 -1.34998,-4.87959 -9.25223,2.87732 2.84251,9.13218 -2.19583,0.50639 -1.75021,-6.26024 -5.21467,1.31645 0.62646,2.16103 -7.3757,1.94289 1.17723,4.73444 -5.84976,1.3704 -2.72198,-9.16712 -9.76046,2.89658 5.88345,20.74469 6.5179,-1.7593 -0.92228,-3.18152 5.5654,-1.67789 -1.68187,-6.47527 10.95044,-3.30453 2.83644,9.78467 8.34398,-2.41881 -0.95101,-3.95406 6.34578,-1.90411 1.01934,3.73904 7.94104,-2.23745 -2.62938,-9.51933 4.51941,-1.24556 2.20999,7.62364 3.30158,-0.95709 0.4625,1.81813 11.29321,-3.46897 -1.41958,-5.1197 4.18474,-1.27765 -1.17596,-4.2793 4.54492,-1.38206 2.74209,9.68188 8.70415,-2.52322 -0.62645,-2.16103 4.54491,-1.38206 0.70341,2.20379 5.29978,-1.47178 -2.7943,-9.86196 4.45939,-1.22816 1.84455,6.36304 4.725,-1.43427 0.93234,3.4389 8.16387,-2.3666 -2.63768,-9.3217 2.29835,-0.60171 2.4855,9.26203 3.74062,-1.13388 z m 28.86942,14.27815 6.72321,-1.94897 -2.01682,-6.50832 3.67901,-1.00194 1.34726,4.42486 6.06289,-1.75755 -0.74092,-2.77858 2.77858,-0.74092 1.60701,4.87014 8.58409,-2.48841 -0.76566,-2.64126 5.02514,-1.52128 0.79041,2.50394 13.64377,-3.89059 -4.6114,-15.90759 -4.89537,1.74447 -1.51393,-5.22249 -6.16569,1.8519 2.71464,9.36447 -4.48489,1.36466 -2.73203,-9.4245 -7.94105,2.23745 1.59743,4.61263 -5.92557,1.78229 1.36466,4.48489 -5.8306,1.88543 -2.71463,-9.36447 -7.09296,1.79586 2.9217,9.62981 -4.50215,1.30511 z"
       id="path3640-9"
       inkscape:connector-curvature="0"
       sodipodi:nodetypes="cccccccccccccccccccccccccccccccccccccccccccccccccccccccccccccccccccccccccccccccccccccccccccccccccccccccccc" />
    <path
       style="fill:#c8c8ff;fill-opacity:1;stroke:#000000;stroke-width:1px;stroke-linecap:butt;stroke-linejoin:miter;stroke-opacity:1"
       d="m 450.47087,130.81118 -10.74575,2.93097 2.81616,9.39865 -12.80773,3.43678 -2.48802,-9.21776 -8.4894,2.46096 1.01969,3.20148 -8.1141,2.16809 -0.88594,-3.05618 -6.8159,1.88422 1.65953,5.40871 -6.9368,2.10251 -1.74483,-5.38399 -11.03614,3.19923 0.98191,2.75224 -5.21418,1.6956 -0.93517,-3.22599 -14.4183,4.54783 1.30185,3.8559 -8.62343,2.31573 1.79403,5.55371 -3.11659,0.99508 -0.77681,-2.99578 -9.11931,2.82764 0.81211,2.80147 -3.05608,0.88592 -2.78087,-9.59297 -8.08692,2.2536 5.994,20.99311 14.39616,-3.9892 -2.63566,-9.72704 3.88053,-1.21654 1.3043,4.49937 4.66918,-1.35353 1.69558,5.21412 7.13102,-2.06718 -0.7768,-2.99572 5.1428,-1.30685 0.7629,2.63171 6.25745,-1.90599 -2.47692,-9.49695 4.15975,-1.20586 2.64711,9.44762 8.40449,-2.43635 -0.81209,-2.80143 5.62743,-1.53969 -1.08282,-3.73532 3.4562,-1.09352 1.97943,6.51224 5.94245,-1.72264 -3.04657,-9.23988 3.48061,-1.00898 2.11641,7.30083 6.13686,-1.68737 0.53072,2.14687 7.65143,-2.49413 -0.60455,-2.40152 5.94255,-1.72266 0.993,2.47297 8.02919,-2.1435 -2.83008,-9.76271 5.6274,-1.53968 1.3396,4.30505 4.66917,-1.35353 1.58569,5.15397 4.79424,-1.55091 c 0,0 -2.13096,-9.89116 -6.27517,-20.38283 z m 26.44863,4.57258 4.83888,-1.40272 1.45441,5.65215 6.08785,-1.85641 1.30184,3.85585 6.59707,-2.00445 -1.73874,-6.95015 5.22773,-1.33137 2.00404,6.59714 6.16158,-1.6021 -2.39781,-7.9555 5.00869,-1.45195 2.22877,8.0045 12.0303,-3.57946 -5.88421,-20.93295 -9.75161,2.55074 1.54786,4.70488 -13.80193,3.81691 -1.25508,-4.32955 -8.60988,2.67997 2.90145,9.37392 -6.53678,1.89493 -1.46589,-5.37281 -8.14977,2.36251 z"
       id="path3642-4"
       inkscape:connector-curvature="0"
       sodipodi:nodetypes="cccccccccccccccccccccccccccccccccccccccccccccccccccccccccccccccccccccccccccccccccccccccccccc" />
  </g>
</svg>
